<?xml version="1.0" standalone="no"?>
<!DOCTYPE svg PUBLIC "-//W3C//DTD SVG 20010904//EN"
 "http://www.w3.org/TR/2001/REC-SVG-20010904/DTD/svg10.dtd">
<svg version="1.0" xmlns="http://www.w3.org/2000/svg"
 width="1024.000000pt" height="1024.000000pt" viewBox="0 0 1024.000000 1024.000000"
 preserveAspectRatio="xMidYMid meet">

<g transform="translate(0.000000,1024.000000) scale(0.100000,-0.100000)"
fill="#000000" stroke="none">
<path d="M0 5120 l0 -5120 5120 0 5120 0 0 5120 0 5120 -5120 0 -5120 0 0
-5120z m4255 4446 c118 -22 277 -76 393 -133 224 -110 466 -304 577 -462 42
-59 56 -72 90 -81 154 -40 209 -60 313 -110 228 -112 406 -269 552 -488 11
-17 42 -30 125 -52 231 -61 438 -170 626 -326 168 -140 315 -333 386 -506 35
-88 41 -94 129 -153 158 -106 266 -248 305 -405 30 -117 24 -294 -13 -397 -31
-88 -98 -190 -172 -262 l-55 -54 99 -33 c120 -40 179 -69 290 -142 219 -145
394 -392 468 -659 l27 -98 3 -855 c2 -607 0 -878 -8 -935 -57 -394 -354 -747
-745 -888 -74 -26 -202 -54 -270 -59 l-40 -3 -6 -225 c-7 -253 -19 -332 -76
-474 -124 -313 -377 -539 -703 -628 l-85 -23 -1605 0 -1605 0 -85 24 c-47 12
-131 45 -186 72 -299 143 -483 383 -571 744 -15 63 -18 194 -23 1394 l-5 1323
-55 17 c-268 84 -472 300 -562 593 -22 72 -22 80 -26 803 -3 815 -2 832 65
1034 84 252 250 499 451 673 41 34 81 76 89 92 11 21 18 77 23 176 13 242 59
417 165 635 229 467 678 793 1214 880 111 18 383 13 506 -9z"/>
<path d="M3875 9120 c-447 -41 -826 -326 -982 -740 -43 -113 -64 -235 -73
-415 -12 -249 -43 -321 -188 -438 -269 -215 -413 -464 -442 -763 -5 -54 -10
-371 -10 -704 0 -647 1 -653 51 -757 69 -144 260 -239 427 -213 178 28 303
140 356 319 14 47 16 121 16 515 0 519 -1 511 76 574 52 43 89 52 219 52 63 0
133 6 164 15 145 38 261 134 328 271 30 60 50 86 82 109 l43 30 1306 0 1307 0
47 -27 c58 -35 83 -74 108 -173 45 -176 152 -296 299 -335 156 -41 315 77 315
234 -1 112 -54 178 -200 248 -97 46 -129 80 -170 176 -86 208 -151 308 -275
427 -92 88 -157 134 -264 187 -132 66 -223 92 -397 113 -66 8 -117 49 -157
126 -76 142 -185 267 -310 351 -124 85 -293 148 -392 148 -55 0 -144 36 -171
70 -13 16 -38 56 -57 90 -70 123 -246 286 -407 376 -180 101 -435 153 -649
134z"/>
<path d="M4132 6500 c-57 -101 -200 -224 -340 -294 -80 -40 -236 -86 -294 -86
l-36 0 -5 -387 c-4 -431 -5 -436 -77 -590 -89 -191 -223 -328 -410 -417 -41
-20 -89 -39 -107 -42 l-34 -6 4 -1307 c3 -1201 4 -1311 20 -1370 45 -164 166
-316 307 -384 148 -71 41 -67 1710 -67 1657 0 1554 -4 1690 62 90 43 216 169
258 259 73 153 67 -39 70 2160 l2 1976 -70 27 c-89 35 -206 112 -283 184 -61
58 -144 176 -191 270 l-26 52 -1083 0 -1082 0 -23 -40z m443 -533 c55 -31 101
-96 114 -159 8 -38 11 -577 9 -1838 l-3 -1785 -21 -45 c-73 -158 -294 -171
-381 -22 l-28 47 -3 1825 c-3 2017 -7 1872 61 1938 49 47 85 62 152 62 44 0
71 -6 100 -23z m1244 3 c44 -22 88 -70 108 -117 11 -27 13 -348 13 -1853 l0
-1820 -21 -45 c-74 -157 -289 -166 -376 -18 l-28 48 -3 1815 c-2 1330 0 1826
9 1856 14 52 59 108 107 134 50 26 140 26 191 0z m-2045 -991 c21 -6 58 -29
82 -51 79 -73 74 20 74 -1424 0 -1443 4 -1354 -74 -1429 -91 -88 -209 -86
-297 5 -36 37 -49 59 -58 99 -14 68 -16 2600 -1 2650 16 58 59 109 113 136 55
27 100 31 161 14z m2814 -23 c50 -31 87 -79 101 -131 15 -53 15 -2604 1 -2656
-17 -61 -52 -102 -110 -132 -102 -53 -213 -23 -277 75 l-28 42 -3 1334 -2
1335 21 44 c54 112 194 154 297 89z"/>
<path d="M7330 4310 l0 -1390 29 0 c44 0 158 38 236 78 107 55 230 183 283
293 78 161 77 142 77 1034 l0 790 -23 80 c-68 235 -265 423 -509 486 -42 10
-80 19 -85 19 -4 0 -8 -625 -8 -1390z"/>
</g>
</svg>
